<mxfile host="app.diagrams.net" modified="2021-09-16T19:07:34.861Z" agent="5.0 (Windows NT 10.0; Win64; x64) AppleWebKit/537.36 (KHTML, like Gecko) Chrome/93.0.4577.82 Safari/537.36" etag="W4Ji8mxjajGv_ts7lkXB" version="15.2.7" type="github">
  <diagram id="vQUaaOrnvc0rL3LVpokD" name="Page-1">
    <mxGraphModel dx="2154" dy="1667" grid="1" gridSize="10" guides="1" tooltips="1" connect="1" arrows="1" fold="1" page="1" pageScale="1" pageWidth="850" pageHeight="1100" math="0" shadow="0">
      <root>
        <mxCell id="0" />
        <mxCell id="1" parent="0" />
        <mxCell id="0d4GLXFRAGhSv_QBMywo-3" style="edgeStyle=orthogonalEdgeStyle;rounded=0;orthogonalLoop=1;jettySize=auto;html=1;exitX=0.5;exitY=0;exitDx=0;exitDy=0;entryX=0.5;entryY=1;entryDx=0;entryDy=0;startArrow=none;" parent="1" source="0d4GLXFRAGhSv_QBMywo-14" target="0d4GLXFRAGhSv_QBMywo-2" edge="1">
          <mxGeometry relative="1" as="geometry" />
        </mxCell>
        <mxCell id="0d4GLXFRAGhSv_QBMywo-68" style="edgeStyle=orthogonalEdgeStyle;rounded=0;orthogonalLoop=1;jettySize=auto;html=1;exitX=0.5;exitY=1;exitDx=0;exitDy=0;entryX=0;entryY=0.75;entryDx=0;entryDy=0;" parent="1" source="0d4GLXFRAGhSv_QBMywo-1" target="0d4GLXFRAGhSv_QBMywo-25" edge="1">
          <mxGeometry relative="1" as="geometry">
            <mxPoint x="350" y="720" as="targetPoint" />
          </mxGeometry>
        </mxCell>
        <mxCell id="Pm-5ZePOj2rBcAFan-Gi-4" style="edgeStyle=orthogonalEdgeStyle;rounded=0;orthogonalLoop=1;jettySize=auto;html=1;exitX=0;exitY=0.5;exitDx=0;exitDy=0;entryX=0.5;entryY=1;entryDx=0;entryDy=0;" edge="1" parent="1" source="0d4GLXFRAGhSv_QBMywo-1" target="0d4GLXFRAGhSv_QBMywo-33">
          <mxGeometry relative="1" as="geometry" />
        </mxCell>
        <mxCell id="Pm-5ZePOj2rBcAFan-Gi-6" value="" style="edgeStyle=orthogonalEdgeStyle;rounded=0;orthogonalLoop=1;jettySize=auto;html=1;" edge="1" parent="1" source="0d4GLXFRAGhSv_QBMywo-1" target="Pm-5ZePOj2rBcAFan-Gi-5">
          <mxGeometry relative="1" as="geometry" />
        </mxCell>
        <mxCell id="Pm-5ZePOj2rBcAFan-Gi-8" value="" style="edgeStyle=orthogonalEdgeStyle;rounded=0;orthogonalLoop=1;jettySize=auto;html=1;" edge="1" parent="1" source="0d4GLXFRAGhSv_QBMywo-1" target="Pm-5ZePOj2rBcAFan-Gi-7">
          <mxGeometry relative="1" as="geometry" />
        </mxCell>
        <mxCell id="Pm-5ZePOj2rBcAFan-Gi-10" value="" style="edgeStyle=orthogonalEdgeStyle;rounded=0;orthogonalLoop=1;jettySize=auto;html=1;" edge="1" parent="1" source="0d4GLXFRAGhSv_QBMywo-1" target="Pm-5ZePOj2rBcAFan-Gi-9">
          <mxGeometry relative="1" as="geometry" />
        </mxCell>
        <mxCell id="0d4GLXFRAGhSv_QBMywo-1" value="Professor" style="whiteSpace=wrap;html=1;aspect=fixed;fillColor=#D5E8D4;" parent="1" vertex="1">
          <mxGeometry x="130" y="430" width="80" height="80" as="geometry" />
        </mxCell>
        <mxCell id="0d4GLXFRAGhSv_QBMywo-96" value="" style="edgeStyle=orthogonalEdgeStyle;rounded=0;orthogonalLoop=1;jettySize=auto;html=1;" parent="1" source="0d4GLXFRAGhSv_QBMywo-2" target="0d4GLXFRAGhSv_QBMywo-95" edge="1">
          <mxGeometry relative="1" as="geometry" />
        </mxCell>
        <mxCell id="0d4GLXFRAGhSv_QBMywo-99" value="" style="edgeStyle=orthogonalEdgeStyle;rounded=0;orthogonalLoop=1;jettySize=auto;html=1;" parent="1" source="0d4GLXFRAGhSv_QBMywo-2" target="0d4GLXFRAGhSv_QBMywo-98" edge="1">
          <mxGeometry relative="1" as="geometry" />
        </mxCell>
        <mxCell id="0d4GLXFRAGhSv_QBMywo-2" value="Course" style="whiteSpace=wrap;html=1;aspect=fixed;fillColor=#D5E8D4;" parent="1" vertex="1">
          <mxGeometry x="120" y="50" width="80" height="80" as="geometry" />
        </mxCell>
        <mxCell id="0d4GLXFRAGhSv_QBMywo-5" value="1" style="text;html=1;align=center;verticalAlign=middle;resizable=0;points=[];autosize=1;strokeColor=none;fillColor=#33FF33;" parent="1" vertex="1">
          <mxGeometry x="140" y="320" width="20" height="20" as="geometry" />
        </mxCell>
        <mxCell id="0d4GLXFRAGhSv_QBMywo-6" value="N" style="text;html=1;align=center;verticalAlign=middle;resizable=0;points=[];autosize=1;strokeColor=none;fillColor=#33FF33;" parent="1" vertex="1">
          <mxGeometry x="140" y="180" width="20" height="20" as="geometry" />
        </mxCell>
        <mxCell id="0d4GLXFRAGhSv_QBMywo-9" style="edgeStyle=orthogonalEdgeStyle;rounded=0;orthogonalLoop=1;jettySize=auto;html=1;exitX=0;exitY=0.5;exitDx=0;exitDy=0;entryX=1;entryY=0.5;entryDx=0;entryDy=0;startArrow=none;" parent="1" source="0d4GLXFRAGhSv_QBMywo-10" target="0d4GLXFRAGhSv_QBMywo-2" edge="1">
          <mxGeometry relative="1" as="geometry" />
        </mxCell>
        <mxCell id="0d4GLXFRAGhSv_QBMywo-18" style="edgeStyle=orthogonalEdgeStyle;rounded=0;orthogonalLoop=1;jettySize=auto;html=1;exitX=0.5;exitY=1;exitDx=0;exitDy=0;startArrow=none;" parent="1" source="0d4GLXFRAGhSv_QBMywo-19" target="0d4GLXFRAGhSv_QBMywo-17" edge="1">
          <mxGeometry relative="1" as="geometry" />
        </mxCell>
        <mxCell id="0d4GLXFRAGhSv_QBMywo-42" style="edgeStyle=orthogonalEdgeStyle;rounded=0;orthogonalLoop=1;jettySize=auto;html=1;exitX=0.5;exitY=0;exitDx=0;exitDy=0;entryX=1;entryY=0.5;entryDx=0;entryDy=0;startArrow=none;" parent="1" source="0d4GLXFRAGhSv_QBMywo-43" target="0d4GLXFRAGhSv_QBMywo-33" edge="1">
          <mxGeometry relative="1" as="geometry" />
        </mxCell>
        <mxCell id="0d4GLXFRAGhSv_QBMywo-51" style="edgeStyle=orthogonalEdgeStyle;rounded=0;orthogonalLoop=1;jettySize=auto;html=1;exitX=0;exitY=1;exitDx=0;exitDy=0;entryX=0.75;entryY=0;entryDx=0;entryDy=0;startArrow=none;" parent="1" source="0d4GLXFRAGhSv_QBMywo-56" target="0d4GLXFRAGhSv_QBMywo-47" edge="1">
          <mxGeometry relative="1" as="geometry" />
        </mxCell>
        <mxCell id="0d4GLXFRAGhSv_QBMywo-75" value="" style="edgeStyle=orthogonalEdgeStyle;rounded=0;orthogonalLoop=1;jettySize=auto;html=1;" parent="1" source="0d4GLXFRAGhSv_QBMywo-7" target="0d4GLXFRAGhSv_QBMywo-74" edge="1">
          <mxGeometry relative="1" as="geometry" />
        </mxCell>
        <mxCell id="0d4GLXFRAGhSv_QBMywo-77" value="" style="edgeStyle=orthogonalEdgeStyle;rounded=0;orthogonalLoop=1;jettySize=auto;html=1;" parent="1" source="0d4GLXFRAGhSv_QBMywo-7" target="0d4GLXFRAGhSv_QBMywo-76" edge="1">
          <mxGeometry relative="1" as="geometry" />
        </mxCell>
        <mxCell id="0d4GLXFRAGhSv_QBMywo-79" value="" style="edgeStyle=orthogonalEdgeStyle;rounded=0;orthogonalLoop=1;jettySize=auto;html=1;" parent="1" source="0d4GLXFRAGhSv_QBMywo-7" target="0d4GLXFRAGhSv_QBMywo-78" edge="1">
          <mxGeometry relative="1" as="geometry" />
        </mxCell>
        <mxCell id="0d4GLXFRAGhSv_QBMywo-81" value="" style="edgeStyle=orthogonalEdgeStyle;rounded=0;orthogonalLoop=1;jettySize=auto;html=1;" parent="1" source="0d4GLXFRAGhSv_QBMywo-7" target="0d4GLXFRAGhSv_QBMywo-80" edge="1">
          <mxGeometry relative="1" as="geometry" />
        </mxCell>
        <mxCell id="0d4GLXFRAGhSv_QBMywo-85" value="" style="edgeStyle=orthogonalEdgeStyle;rounded=0;orthogonalLoop=1;jettySize=auto;html=1;" parent="1" source="0d4GLXFRAGhSv_QBMywo-7" target="0d4GLXFRAGhSv_QBMywo-84" edge="1">
          <mxGeometry relative="1" as="geometry" />
        </mxCell>
        <mxCell id="0d4GLXFRAGhSv_QBMywo-87" value="" style="edgeStyle=orthogonalEdgeStyle;rounded=0;orthogonalLoop=1;jettySize=auto;html=1;" parent="1" source="0d4GLXFRAGhSv_QBMywo-7" target="0d4GLXFRAGhSv_QBMywo-86" edge="1">
          <mxGeometry relative="1" as="geometry" />
        </mxCell>
        <mxCell id="0d4GLXFRAGhSv_QBMywo-92" value="" style="edgeStyle=orthogonalEdgeStyle;rounded=0;orthogonalLoop=1;jettySize=auto;html=1;" parent="1" source="0d4GLXFRAGhSv_QBMywo-7" target="0d4GLXFRAGhSv_QBMywo-91" edge="1">
          <mxGeometry relative="1" as="geometry" />
        </mxCell>
        <mxCell id="0d4GLXFRAGhSv_QBMywo-94" value="" style="edgeStyle=orthogonalEdgeStyle;rounded=0;orthogonalLoop=1;jettySize=auto;html=1;" parent="1" source="0d4GLXFRAGhSv_QBMywo-7" target="0d4GLXFRAGhSv_QBMywo-93" edge="1">
          <mxGeometry relative="1" as="geometry" />
        </mxCell>
        <mxCell id="0d4GLXFRAGhSv_QBMywo-7" value="Students" style="whiteSpace=wrap;html=1;aspect=fixed;fillColor=#D5E8D4;" parent="1" vertex="1">
          <mxGeometry x="690" y="50" width="80" height="80" as="geometry" />
        </mxCell>
        <mxCell id="0d4GLXFRAGhSv_QBMywo-14" value="Teaches" style="rhombus;whiteSpace=wrap;html=1;fillColor=#7EA6E0;" parent="1" vertex="1">
          <mxGeometry x="130" y="210" width="80" height="70" as="geometry" />
        </mxCell>
        <mxCell id="0d4GLXFRAGhSv_QBMywo-15" value="" style="edgeStyle=orthogonalEdgeStyle;rounded=0;orthogonalLoop=1;jettySize=auto;html=1;exitX=0.5;exitY=0;exitDx=0;exitDy=0;entryX=0.5;entryY=1;entryDx=0;entryDy=0;endArrow=none;" parent="1" source="0d4GLXFRAGhSv_QBMywo-1" target="0d4GLXFRAGhSv_QBMywo-14" edge="1">
          <mxGeometry relative="1" as="geometry">
            <mxPoint x="310" y="290" as="sourcePoint" />
            <mxPoint x="310" y="160" as="targetPoint" />
          </mxGeometry>
        </mxCell>
        <mxCell id="0d4GLXFRAGhSv_QBMywo-10" value="Enroll" style="rhombus;whiteSpace=wrap;html=1;fillColor=#7EA6E0;" parent="1" vertex="1">
          <mxGeometry x="425" y="50" width="80" height="80" as="geometry" />
        </mxCell>
        <mxCell id="0d4GLXFRAGhSv_QBMywo-16" value="" style="edgeStyle=orthogonalEdgeStyle;rounded=0;orthogonalLoop=1;jettySize=auto;html=1;exitX=0;exitY=0.5;exitDx=0;exitDy=0;entryX=1;entryY=0.5;entryDx=0;entryDy=0;endArrow=none;" parent="1" source="0d4GLXFRAGhSv_QBMywo-7" target="0d4GLXFRAGhSv_QBMywo-10" edge="1">
          <mxGeometry relative="1" as="geometry">
            <mxPoint x="610" y="280" as="sourcePoint" />
            <mxPoint x="350" y="120" as="targetPoint" />
          </mxGeometry>
        </mxCell>
        <mxCell id="0d4GLXFRAGhSv_QBMywo-27" style="edgeStyle=orthogonalEdgeStyle;rounded=0;orthogonalLoop=1;jettySize=auto;html=1;exitX=0.5;exitY=1;exitDx=0;exitDy=0;entryX=1.013;entryY=0.663;entryDx=0;entryDy=0;entryPerimeter=0;startArrow=none;" parent="1" source="0d4GLXFRAGhSv_QBMywo-30" target="0d4GLXFRAGhSv_QBMywo-25" edge="1">
          <mxGeometry relative="1" as="geometry" />
        </mxCell>
        <mxCell id="Pm-5ZePOj2rBcAFan-Gi-25" value="" style="edgeStyle=orthogonalEdgeStyle;rounded=0;orthogonalLoop=1;jettySize=auto;html=1;" edge="1" parent="1" source="0d4GLXFRAGhSv_QBMywo-17" target="Pm-5ZePOj2rBcAFan-Gi-24">
          <mxGeometry relative="1" as="geometry" />
        </mxCell>
        <mxCell id="Pm-5ZePOj2rBcAFan-Gi-27" value="" style="edgeStyle=orthogonalEdgeStyle;rounded=0;orthogonalLoop=1;jettySize=auto;html=1;" edge="1" parent="1" source="0d4GLXFRAGhSv_QBMywo-17" target="Pm-5ZePOj2rBcAFan-Gi-26">
          <mxGeometry relative="1" as="geometry" />
        </mxCell>
        <mxCell id="Pm-5ZePOj2rBcAFan-Gi-29" value="" style="edgeStyle=orthogonalEdgeStyle;rounded=0;orthogonalLoop=1;jettySize=auto;html=1;" edge="1" parent="1" source="0d4GLXFRAGhSv_QBMywo-17" target="Pm-5ZePOj2rBcAFan-Gi-28">
          <mxGeometry relative="1" as="geometry" />
        </mxCell>
        <mxCell id="Pm-5ZePOj2rBcAFan-Gi-31" value="" style="edgeStyle=orthogonalEdgeStyle;rounded=0;orthogonalLoop=1;jettySize=auto;html=1;" edge="1" parent="1" source="0d4GLXFRAGhSv_QBMywo-17" target="Pm-5ZePOj2rBcAFan-Gi-30">
          <mxGeometry relative="1" as="geometry" />
        </mxCell>
        <mxCell id="Pm-5ZePOj2rBcAFan-Gi-33" value="" style="edgeStyle=orthogonalEdgeStyle;rounded=0;orthogonalLoop=1;jettySize=auto;html=1;" edge="1" parent="1" source="0d4GLXFRAGhSv_QBMywo-17" target="Pm-5ZePOj2rBcAFan-Gi-32">
          <mxGeometry relative="1" as="geometry" />
        </mxCell>
        <mxCell id="0d4GLXFRAGhSv_QBMywo-17" value="Submissions" style="whiteSpace=wrap;html=1;aspect=fixed;fillColor=#D5E8D4;" parent="1" vertex="1">
          <mxGeometry x="690" y="420" width="80" height="80" as="geometry" />
        </mxCell>
        <mxCell id="0d4GLXFRAGhSv_QBMywo-19" value="Submit/view" style="rhombus;whiteSpace=wrap;html=1;fillColor=#7EA6E0;" parent="1" vertex="1">
          <mxGeometry x="690" y="190" width="80" height="80" as="geometry" />
        </mxCell>
        <mxCell id="0d4GLXFRAGhSv_QBMywo-20" value="" style="edgeStyle=orthogonalEdgeStyle;rounded=0;orthogonalLoop=1;jettySize=auto;html=1;exitX=0.5;exitY=1;exitDx=0;exitDy=0;endArrow=none;" parent="1" source="0d4GLXFRAGhSv_QBMywo-7" target="0d4GLXFRAGhSv_QBMywo-19" edge="1">
          <mxGeometry relative="1" as="geometry">
            <mxPoint x="630" y="160" as="sourcePoint" />
            <mxPoint x="630" y="300" as="targetPoint" />
          </mxGeometry>
        </mxCell>
        <mxCell id="0d4GLXFRAGhSv_QBMywo-24" style="edgeStyle=orthogonalEdgeStyle;rounded=0;orthogonalLoop=1;jettySize=auto;html=1;exitX=1;exitY=0.5;exitDx=0;exitDy=0;entryX=-0.05;entryY=0.625;entryDx=0;entryDy=0;entryPerimeter=0;" parent="1" source="0d4GLXFRAGhSv_QBMywo-22" target="0d4GLXFRAGhSv_QBMywo-17" edge="1">
          <mxGeometry relative="1" as="geometry" />
        </mxCell>
        <mxCell id="0d4GLXFRAGhSv_QBMywo-22" value="view" style="rhombus;whiteSpace=wrap;html=1;fillColor=#7EA6E0;" parent="1" vertex="1">
          <mxGeometry x="430" y="430" width="80" height="80" as="geometry" />
        </mxCell>
        <mxCell id="0d4GLXFRAGhSv_QBMywo-23" value="" style="edgeStyle=orthogonalEdgeStyle;rounded=0;orthogonalLoop=1;jettySize=auto;html=1;exitX=1;exitY=0.5;exitDx=0;exitDy=0;entryX=0;entryY=0.5;entryDx=0;entryDy=0;endArrow=none;" parent="1" source="0d4GLXFRAGhSv_QBMywo-1" target="0d4GLXFRAGhSv_QBMywo-22" edge="1">
          <mxGeometry relative="1" as="geometry">
            <mxPoint x="350" y="350" as="sourcePoint" />
            <mxPoint x="591.04" y="349.03999999999996" as="targetPoint" />
          </mxGeometry>
        </mxCell>
        <mxCell id="Pm-5ZePOj2rBcAFan-Gi-12" value="" style="edgeStyle=orthogonalEdgeStyle;rounded=0;orthogonalLoop=1;jettySize=auto;html=1;" edge="1" parent="1" source="0d4GLXFRAGhSv_QBMywo-25" target="Pm-5ZePOj2rBcAFan-Gi-11">
          <mxGeometry relative="1" as="geometry" />
        </mxCell>
        <mxCell id="Pm-5ZePOj2rBcAFan-Gi-14" value="" style="edgeStyle=orthogonalEdgeStyle;rounded=0;orthogonalLoop=1;jettySize=auto;html=1;" edge="1" parent="1" source="0d4GLXFRAGhSv_QBMywo-25" target="Pm-5ZePOj2rBcAFan-Gi-13">
          <mxGeometry relative="1" as="geometry" />
        </mxCell>
        <mxCell id="Pm-5ZePOj2rBcAFan-Gi-16" value="" style="edgeStyle=orthogonalEdgeStyle;rounded=0;orthogonalLoop=1;jettySize=auto;html=1;" edge="1" parent="1" source="0d4GLXFRAGhSv_QBMywo-25" target="Pm-5ZePOj2rBcAFan-Gi-15">
          <mxGeometry relative="1" as="geometry" />
        </mxCell>
        <mxCell id="Pm-5ZePOj2rBcAFan-Gi-18" value="" style="edgeStyle=orthogonalEdgeStyle;rounded=0;orthogonalLoop=1;jettySize=auto;html=1;" edge="1" parent="1" source="0d4GLXFRAGhSv_QBMywo-25" target="Pm-5ZePOj2rBcAFan-Gi-17">
          <mxGeometry relative="1" as="geometry" />
        </mxCell>
        <mxCell id="Pm-5ZePOj2rBcAFan-Gi-20" value="" style="edgeStyle=orthogonalEdgeStyle;rounded=0;orthogonalLoop=1;jettySize=auto;html=1;" edge="1" parent="1" source="0d4GLXFRAGhSv_QBMywo-25" target="Pm-5ZePOj2rBcAFan-Gi-19">
          <mxGeometry relative="1" as="geometry" />
        </mxCell>
        <mxCell id="Pm-5ZePOj2rBcAFan-Gi-23" value="" style="edgeStyle=orthogonalEdgeStyle;rounded=0;orthogonalLoop=1;jettySize=auto;html=1;" edge="1" parent="1" source="0d4GLXFRAGhSv_QBMywo-25" target="Pm-5ZePOj2rBcAFan-Gi-22">
          <mxGeometry relative="1" as="geometry" />
        </mxCell>
        <mxCell id="0d4GLXFRAGhSv_QBMywo-25" value="Assignment" style="whiteSpace=wrap;html=1;aspect=fixed;fillColor=#D5E8D4;" parent="1" vertex="1">
          <mxGeometry x="385" y="680" width="80" height="80" as="geometry" />
        </mxCell>
        <mxCell id="0d4GLXFRAGhSv_QBMywo-63" style="edgeStyle=orthogonalEdgeStyle;rounded=0;orthogonalLoop=1;jettySize=auto;html=1;exitX=0.5;exitY=0;exitDx=0;exitDy=0;entryX=0;entryY=0.5;entryDx=0;entryDy=0;" parent="1" source="0d4GLXFRAGhSv_QBMywo-33" target="0d4GLXFRAGhSv_QBMywo-44" edge="1">
          <mxGeometry relative="1" as="geometry" />
        </mxCell>
        <mxCell id="Pm-5ZePOj2rBcAFan-Gi-35" value="" style="edgeStyle=orthogonalEdgeStyle;rounded=0;orthogonalLoop=1;jettySize=auto;html=1;" edge="1" parent="1" source="0d4GLXFRAGhSv_QBMywo-33" target="Pm-5ZePOj2rBcAFan-Gi-34">
          <mxGeometry relative="1" as="geometry" />
        </mxCell>
        <mxCell id="Pm-5ZePOj2rBcAFan-Gi-37" value="" style="edgeStyle=orthogonalEdgeStyle;rounded=0;orthogonalLoop=1;jettySize=auto;html=1;" edge="1" parent="1" source="0d4GLXFRAGhSv_QBMywo-33" target="Pm-5ZePOj2rBcAFan-Gi-36">
          <mxGeometry relative="1" as="geometry" />
        </mxCell>
        <mxCell id="Pm-5ZePOj2rBcAFan-Gi-39" value="" style="edgeStyle=orthogonalEdgeStyle;rounded=0;orthogonalLoop=1;jettySize=auto;html=1;" edge="1" parent="1" source="0d4GLXFRAGhSv_QBMywo-33" target="Pm-5ZePOj2rBcAFan-Gi-38">
          <mxGeometry relative="1" as="geometry" />
        </mxCell>
        <mxCell id="Pm-5ZePOj2rBcAFan-Gi-41" value="" style="edgeStyle=orthogonalEdgeStyle;rounded=0;orthogonalLoop=1;jettySize=auto;html=1;" edge="1" parent="1" source="0d4GLXFRAGhSv_QBMywo-33" target="Pm-5ZePOj2rBcAFan-Gi-40">
          <mxGeometry relative="1" as="geometry" />
        </mxCell>
        <mxCell id="0d4GLXFRAGhSv_QBMywo-33" value="Comments" style="whiteSpace=wrap;html=1;aspect=fixed;fillColor=#D5E8D4;" parent="1" vertex="1">
          <mxGeometry x="-40" y="-80" width="80" height="80" as="geometry" />
        </mxCell>
        <mxCell id="0d4GLXFRAGhSv_QBMywo-35" value="add/view" style="rhombus;whiteSpace=wrap;html=1;fillColor=#7EA6E0;" parent="1" vertex="1">
          <mxGeometry x="-40" y="170" width="80" height="80" as="geometry" />
        </mxCell>
        <mxCell id="0d4GLXFRAGhSv_QBMywo-44" value="Email" style="whiteSpace=wrap;html=1;aspect=fixed;fillColor=#D5E8D4;" parent="1" vertex="1">
          <mxGeometry x="360" y="-260" width="80" height="80" as="geometry" />
        </mxCell>
        <mxCell id="Pm-5ZePOj2rBcAFan-Gi-43" value="" style="edgeStyle=orthogonalEdgeStyle;rounded=0;orthogonalLoop=1;jettySize=auto;html=1;" edge="1" parent="1" source="0d4GLXFRAGhSv_QBMywo-47" target="Pm-5ZePOj2rBcAFan-Gi-42">
          <mxGeometry relative="1" as="geometry" />
        </mxCell>
        <mxCell id="Pm-5ZePOj2rBcAFan-Gi-45" value="" style="edgeStyle=orthogonalEdgeStyle;rounded=0;orthogonalLoop=1;jettySize=auto;html=1;" edge="1" parent="1" source="0d4GLXFRAGhSv_QBMywo-47" target="Pm-5ZePOj2rBcAFan-Gi-44">
          <mxGeometry relative="1" as="geometry" />
        </mxCell>
        <mxCell id="Pm-5ZePOj2rBcAFan-Gi-47" value="" style="edgeStyle=orthogonalEdgeStyle;rounded=0;orthogonalLoop=1;jettySize=auto;html=1;" edge="1" parent="1" source="0d4GLXFRAGhSv_QBMywo-47" target="Pm-5ZePOj2rBcAFan-Gi-46">
          <mxGeometry relative="1" as="geometry" />
        </mxCell>
        <mxCell id="Pm-5ZePOj2rBcAFan-Gi-49" value="" style="edgeStyle=orthogonalEdgeStyle;rounded=0;orthogonalLoop=1;jettySize=auto;html=1;" edge="1" parent="1" source="0d4GLXFRAGhSv_QBMywo-47" target="Pm-5ZePOj2rBcAFan-Gi-48">
          <mxGeometry relative="1" as="geometry" />
        </mxCell>
        <mxCell id="0d4GLXFRAGhSv_QBMywo-47" value="Grades" style="whiteSpace=wrap;html=1;aspect=fixed;fillColor=#D5E8D4;" parent="1" vertex="1">
          <mxGeometry x="440" y="260" width="80" height="80" as="geometry" />
        </mxCell>
        <mxCell id="0d4GLXFRAGhSv_QBMywo-57" style="edgeStyle=orthogonalEdgeStyle;rounded=0;orthogonalLoop=1;jettySize=auto;html=1;exitX=1;exitY=0.5;exitDx=0;exitDy=0;entryX=0;entryY=0.75;entryDx=0;entryDy=0;" parent="1" source="0d4GLXFRAGhSv_QBMywo-54" target="0d4GLXFRAGhSv_QBMywo-47" edge="1">
          <mxGeometry relative="1" as="geometry" />
        </mxCell>
        <mxCell id="0d4GLXFRAGhSv_QBMywo-54" value="updates" style="rhombus;whiteSpace=wrap;html=1;fillColor=#7EA6E0;" parent="1" vertex="1">
          <mxGeometry x="270" y="240" width="80" height="80" as="geometry" />
        </mxCell>
        <mxCell id="0d4GLXFRAGhSv_QBMywo-55" value="" style="edgeStyle=orthogonalEdgeStyle;rounded=0;orthogonalLoop=1;jettySize=auto;html=1;exitX=1;exitY=0;exitDx=0;exitDy=0;entryX=0;entryY=0.625;entryDx=0;entryDy=0;entryPerimeter=0;endArrow=none;" parent="1" source="0d4GLXFRAGhSv_QBMywo-1" target="0d4GLXFRAGhSv_QBMywo-54" edge="1">
          <mxGeometry relative="1" as="geometry">
            <mxPoint x="210" y="340" as="sourcePoint" />
            <mxPoint x="410" y="270" as="targetPoint" />
          </mxGeometry>
        </mxCell>
        <mxCell id="0d4GLXFRAGhSv_QBMywo-46" value="Notify" style="rhombus;whiteSpace=wrap;html=1;fillColor=#7EA6E0;" parent="1" vertex="1">
          <mxGeometry x="70" y="-260" width="80" height="80" as="geometry" />
        </mxCell>
        <mxCell id="0d4GLXFRAGhSv_QBMywo-30" value="Has" style="rhombus;whiteSpace=wrap;html=1;fillColor=#7EA6E0;" parent="1" vertex="1">
          <mxGeometry x="580" y="690" width="80" height="80" as="geometry" />
        </mxCell>
        <mxCell id="0d4GLXFRAGhSv_QBMywo-69" value="" style="edgeStyle=orthogonalEdgeStyle;rounded=0;orthogonalLoop=1;jettySize=auto;html=1;exitX=0.5;exitY=1;exitDx=0;exitDy=0;entryX=1.013;entryY=0.663;entryDx=0;entryDy=0;entryPerimeter=0;endArrow=none;" parent="1" source="0d4GLXFRAGhSv_QBMywo-17" target="0d4GLXFRAGhSv_QBMywo-30" edge="1">
          <mxGeometry relative="1" as="geometry">
            <mxPoint x="730" y="410" as="sourcePoint" />
            <mxPoint x="466.03999999999996" y="733.04" as="targetPoint" />
          </mxGeometry>
        </mxCell>
        <mxCell id="0d4GLXFRAGhSv_QBMywo-70" value="Creates" style="rhombus;whiteSpace=wrap;html=1;fillColor=#7EA6E0;" parent="1" vertex="1">
          <mxGeometry x="130" y="570" width="80" height="80" as="geometry" />
        </mxCell>
        <mxCell id="0d4GLXFRAGhSv_QBMywo-43" value="add/view" style="rhombus;whiteSpace=wrap;html=1;fillColor=#7EA6E0;" parent="1" vertex="1">
          <mxGeometry x="330" y="-60" width="80" height="80" as="geometry" />
        </mxCell>
        <mxCell id="0d4GLXFRAGhSv_QBMywo-71" value="" style="edgeStyle=orthogonalEdgeStyle;rounded=0;orthogonalLoop=1;jettySize=auto;html=1;exitX=0.5;exitY=0;exitDx=0;exitDy=0;entryX=1;entryY=0.5;entryDx=0;entryDy=0;endArrow=none;" parent="1" source="0d4GLXFRAGhSv_QBMywo-7" target="0d4GLXFRAGhSv_QBMywo-43" edge="1">
          <mxGeometry relative="1" as="geometry">
            <mxPoint x="730" y="80" as="sourcePoint" />
            <mxPoint x="70" y="-30" as="targetPoint" />
          </mxGeometry>
        </mxCell>
        <mxCell id="0d4GLXFRAGhSv_QBMywo-56" value="views" style="rhombus;whiteSpace=wrap;html=1;fillColor=#7EA6E0;" parent="1" vertex="1">
          <mxGeometry x="550" y="140" width="80" height="80" as="geometry" />
        </mxCell>
        <mxCell id="0d4GLXFRAGhSv_QBMywo-72" value="" style="edgeStyle=orthogonalEdgeStyle;rounded=0;orthogonalLoop=1;jettySize=auto;html=1;exitX=0;exitY=1;exitDx=0;exitDy=0;entryX=0.75;entryY=0;entryDx=0;entryDy=0;endArrow=none;" parent="1" source="0d4GLXFRAGhSv_QBMywo-7" target="0d4GLXFRAGhSv_QBMywo-56" edge="1">
          <mxGeometry relative="1" as="geometry">
            <mxPoint x="690" y="130" as="sourcePoint" />
            <mxPoint x="470" y="220" as="targetPoint" />
          </mxGeometry>
        </mxCell>
        <mxCell id="0d4GLXFRAGhSv_QBMywo-74" value="Panther_id" style="ellipse;whiteSpace=wrap;html=1;" parent="1" vertex="1">
          <mxGeometry x="830" y="60" width="70" height="30" as="geometry" />
        </mxCell>
        <mxCell id="0d4GLXFRAGhSv_QBMywo-76" value="Lname" style="ellipse;whiteSpace=wrap;html=1;" parent="1" vertex="1">
          <mxGeometry x="830" y="100" width="70" height="20" as="geometry" />
        </mxCell>
        <mxCell id="0d4GLXFRAGhSv_QBMywo-78" value="Fname" style="ellipse;whiteSpace=wrap;html=1;" parent="1" vertex="1">
          <mxGeometry x="830" y="130" width="70" height="30" as="geometry" />
        </mxCell>
        <mxCell id="0d4GLXFRAGhSv_QBMywo-80" value="Email" style="ellipse;whiteSpace=wrap;html=1;" parent="1" vertex="1">
          <mxGeometry x="830" y="20" width="60" height="30" as="geometry" />
        </mxCell>
        <mxCell id="0d4GLXFRAGhSv_QBMywo-84" value="Address" style="ellipse;whiteSpace=wrap;html=1;" parent="1" vertex="1">
          <mxGeometry x="780" y="-30" width="90" height="30" as="geometry" />
        </mxCell>
        <mxCell id="0d4GLXFRAGhSv_QBMywo-86" value="DOB" style="ellipse;whiteSpace=wrap;html=1;" parent="1" vertex="1">
          <mxGeometry x="800" y="180" width="100" height="30" as="geometry" />
        </mxCell>
        <mxCell id="0d4GLXFRAGhSv_QBMywo-91" value="Phone no" style="ellipse;whiteSpace=wrap;html=1;" parent="1" vertex="1">
          <mxGeometry x="950" y="80" width="60" height="30" as="geometry" />
        </mxCell>
        <mxCell id="0d4GLXFRAGhSv_QBMywo-93" value="Password" style="ellipse;whiteSpace=wrap;html=1;" parent="1" vertex="1">
          <mxGeometry x="900" y="40" width="80" height="30" as="geometry" />
        </mxCell>
        <mxCell id="0d4GLXFRAGhSv_QBMywo-95" value="Course_name" style="ellipse;whiteSpace=wrap;html=1;" parent="1" vertex="1">
          <mxGeometry x="10" y="80" width="80" height="32.5" as="geometry" />
        </mxCell>
        <mxCell id="0d4GLXFRAGhSv_QBMywo-98" value="Course_id" style="ellipse;whiteSpace=wrap;html=1;" parent="1" vertex="1">
          <mxGeometry x="10" y="120" width="80" height="30" as="geometry" />
        </mxCell>
        <mxCell id="Pm-5ZePOj2rBcAFan-Gi-5" value="Prof_id" style="ellipse;whiteSpace=wrap;html=1;" vertex="1" parent="1">
          <mxGeometry x="50" y="370" width="90" height="40" as="geometry" />
        </mxCell>
        <mxCell id="Pm-5ZePOj2rBcAFan-Gi-7" value="password" style="ellipse;whiteSpace=wrap;html=1;" vertex="1" parent="1">
          <mxGeometry x="10" y="500" width="85" height="40" as="geometry" />
        </mxCell>
        <mxCell id="Pm-5ZePOj2rBcAFan-Gi-9" value="Phone_no" style="ellipse;whiteSpace=wrap;html=1;" vertex="1" parent="1">
          <mxGeometry x="210" y="530" width="90" height="40" as="geometry" />
        </mxCell>
        <mxCell id="Pm-5ZePOj2rBcAFan-Gi-11" value="Assignment_id" style="ellipse;whiteSpace=wrap;html=1;" vertex="1" parent="1">
          <mxGeometry x="280" y="620" width="100" height="40" as="geometry" />
        </mxCell>
        <mxCell id="Pm-5ZePOj2rBcAFan-Gi-13" value="Start_date" style="ellipse;whiteSpace=wrap;html=1;" vertex="1" parent="1">
          <mxGeometry x="220" y="660" width="95" height="40" as="geometry" />
        </mxCell>
        <mxCell id="Pm-5ZePOj2rBcAFan-Gi-15" value="End_date" style="ellipse;whiteSpace=wrap;html=1;" vertex="1" parent="1">
          <mxGeometry x="230" y="760" width="95" height="40" as="geometry" />
        </mxCell>
        <mxCell id="Pm-5ZePOj2rBcAFan-Gi-17" value="Questions" style="ellipse;whiteSpace=wrap;html=1;" vertex="1" parent="1">
          <mxGeometry x="320" y="810" width="90" height="40" as="geometry" />
        </mxCell>
        <mxCell id="Pm-5ZePOj2rBcAFan-Gi-19" value="Prof_id" style="ellipse;whiteSpace=wrap;html=1;" vertex="1" parent="1">
          <mxGeometry x="380" y="850" width="90" height="40" as="geometry" />
        </mxCell>
        <mxCell id="Pm-5ZePOj2rBcAFan-Gi-22" value="Course_id" style="ellipse;whiteSpace=wrap;html=1;" vertex="1" parent="1">
          <mxGeometry x="500" y="640" width="90" height="40" as="geometry" />
        </mxCell>
        <mxCell id="Pm-5ZePOj2rBcAFan-Gi-24" value="Submission_id" style="ellipse;whiteSpace=wrap;html=1;" vertex="1" parent="1">
          <mxGeometry x="825" y="380" width="80" height="50" as="geometry" />
        </mxCell>
        <mxCell id="Pm-5ZePOj2rBcAFan-Gi-26" value="Panther_id" style="ellipse;whiteSpace=wrap;html=1;" vertex="1" parent="1">
          <mxGeometry x="830" y="430" width="80" height="40" as="geometry" />
        </mxCell>
        <mxCell id="Pm-5ZePOj2rBcAFan-Gi-28" value="Course_id" style="ellipse;whiteSpace=wrap;html=1;" vertex="1" parent="1">
          <mxGeometry x="780" y="520" width="90" height="40" as="geometry" />
        </mxCell>
        <mxCell id="Pm-5ZePOj2rBcAFan-Gi-30" value="Answer" style="ellipse;whiteSpace=wrap;html=1;" vertex="1" parent="1">
          <mxGeometry x="940" y="440" width="90" height="40" as="geometry" />
        </mxCell>
        <mxCell id="Pm-5ZePOj2rBcAFan-Gi-32" value="Assignment_id" style="ellipse;whiteSpace=wrap;html=1;" vertex="1" parent="1">
          <mxGeometry x="925" y="490" width="85" height="60" as="geometry" />
        </mxCell>
        <mxCell id="Pm-5ZePOj2rBcAFan-Gi-34" value="Comment" style="ellipse;whiteSpace=wrap;html=1;" vertex="1" parent="1">
          <mxGeometry x="-190" y="-70" width="90" height="40" as="geometry" />
        </mxCell>
        <mxCell id="Pm-5ZePOj2rBcAFan-Gi-36" value="Panther_id" style="ellipse;whiteSpace=wrap;html=1;" vertex="1" parent="1">
          <mxGeometry x="-180" y="-20" width="95" height="40" as="geometry" />
        </mxCell>
        <mxCell id="Pm-5ZePOj2rBcAFan-Gi-38" value="Assignment_id" style="ellipse;whiteSpace=wrap;html=1;" vertex="1" parent="1">
          <mxGeometry x="-150" y="-140" width="105" height="40" as="geometry" />
        </mxCell>
        <mxCell id="Pm-5ZePOj2rBcAFan-Gi-40" value="Comment_id" style="ellipse;whiteSpace=wrap;html=1;" vertex="1" parent="1">
          <mxGeometry x="-250" y="-110" width="100" height="40" as="geometry" />
        </mxCell>
        <mxCell id="Pm-5ZePOj2rBcAFan-Gi-42" value="Panther_id" style="ellipse;whiteSpace=wrap;html=1;" vertex="1" parent="1">
          <mxGeometry x="580" y="270" width="70" height="50" as="geometry" />
        </mxCell>
        <mxCell id="Pm-5ZePOj2rBcAFan-Gi-44" value="Grade" style="ellipse;whiteSpace=wrap;html=1;" vertex="1" parent="1">
          <mxGeometry x="560" y="320" width="80" height="50" as="geometry" />
        </mxCell>
        <mxCell id="Pm-5ZePOj2rBcAFan-Gi-46" value="Course_id" style="ellipse;whiteSpace=wrap;html=1;" vertex="1" parent="1">
          <mxGeometry x="640" y="310" width="90" height="50" as="geometry" />
        </mxCell>
        <mxCell id="Pm-5ZePOj2rBcAFan-Gi-48" value="Assignment_id" style="ellipse;whiteSpace=wrap;html=1;" vertex="1" parent="1">
          <mxGeometry x="420" y="370" width="90" height="40" as="geometry" />
        </mxCell>
        <mxCell id="Pm-5ZePOj2rBcAFan-Gi-50" value="1" style="text;html=1;align=center;verticalAlign=middle;resizable=0;points=[];autosize=1;strokeColor=none;fillColor=#33FF33;" vertex="1" parent="1">
          <mxGeometry x="-40" y="390" width="20" height="20" as="geometry" />
        </mxCell>
        <mxCell id="Pm-5ZePOj2rBcAFan-Gi-51" value="N" style="text;html=1;align=center;verticalAlign=middle;resizable=0;points=[];autosize=1;strokeColor=none;fillColor=#00FF00;" vertex="1" parent="1">
          <mxGeometry x="-50" y="40" width="20" height="20" as="geometry" />
        </mxCell>
        <mxCell id="Pm-5ZePOj2rBcAFan-Gi-52" value="1" style="text;html=1;align=center;verticalAlign=middle;resizable=0;points=[];autosize=1;strokeColor=none;fillColor=#33FF33;" vertex="1" parent="1">
          <mxGeometry x="640" y="-60" width="20" height="20" as="geometry" />
        </mxCell>
        <mxCell id="Pm-5ZePOj2rBcAFan-Gi-53" value="1" style="text;html=1;align=center;verticalAlign=middle;resizable=0;points=[];autosize=1;strokeColor=none;fillColor=#33FF33;" vertex="1" parent="1">
          <mxGeometry x="610" y="60" width="20" height="20" as="geometry" />
        </mxCell>
        <mxCell id="Pm-5ZePOj2rBcAFan-Gi-54" value="N" style="text;html=1;align=center;verticalAlign=middle;resizable=0;points=[];autosize=1;strokeColor=none;fillColor=#33FF33;" vertex="1" parent="1">
          <mxGeometry x="130" y="-80" width="20" height="20" as="geometry" />
        </mxCell>
        <mxCell id="Pm-5ZePOj2rBcAFan-Gi-55" value="N" style="text;html=1;align=center;verticalAlign=middle;resizable=0;points=[];autosize=1;strokeColor=none;fillColor=#33FF33;" vertex="1" parent="1">
          <mxGeometry x="280" y="60" width="20" height="20" as="geometry" />
        </mxCell>
        <mxCell id="Pm-5ZePOj2rBcAFan-Gi-58" value="1" style="text;html=1;align=center;verticalAlign=middle;resizable=0;points=[];autosize=1;strokeColor=none;fillColor=none;" vertex="1" parent="1">
          <mxGeometry x="220" y="380" width="20" height="20" as="geometry" />
        </mxCell>
        <mxCell id="Pm-5ZePOj2rBcAFan-Gi-59" value="N" style="text;html=1;align=center;verticalAlign=middle;resizable=0;points=[];autosize=1;strokeColor=none;fillColor=none;" vertex="1" parent="1">
          <mxGeometry x="400" y="290" width="20" height="20" as="geometry" />
        </mxCell>
        <mxCell id="Pm-5ZePOj2rBcAFan-Gi-60" value="1" style="text;html=1;align=center;verticalAlign=middle;resizable=0;points=[];autosize=1;strokeColor=none;fillColor=#33FF33;" vertex="1" parent="1">
          <mxGeometry x="290" y="440" width="20" height="20" as="geometry" />
        </mxCell>
        <mxCell id="Pm-5ZePOj2rBcAFan-Gi-61" value="1" style="text;html=1;align=center;verticalAlign=middle;resizable=0;points=[];autosize=1;strokeColor=none;fillColor=#33FF33;" vertex="1" parent="1">
          <mxGeometry x="740" y="150" width="20" height="20" as="geometry" />
        </mxCell>
        <mxCell id="Pm-5ZePOj2rBcAFan-Gi-62" value="N" style="text;html=1;align=center;verticalAlign=middle;resizable=0;points=[];autosize=1;strokeColor=none;fillColor=#33FF33;" vertex="1" parent="1">
          <mxGeometry x="750" y="360" width="20" height="20" as="geometry" />
        </mxCell>
        <mxCell id="Pm-5ZePOj2rBcAFan-Gi-64" value="N" style="text;html=1;align=center;verticalAlign=middle;resizable=0;points=[];autosize=1;strokeColor=none;fillColor=#33FF33;" vertex="1" parent="1">
          <mxGeometry x="600" y="440" width="20" height="20" as="geometry" />
        </mxCell>
      </root>
    </mxGraphModel>
  </diagram>
</mxfile>
